<?xml version="1.0" encoding="utf-8"?>
<!-- Generator: Adobe Illustrator 24.1.0, SVG Export Plug-In . SVG Version: 6.00 Build 0)  -->
<svg version="1.1" id="Layer_1" xmlns="http://www.w3.org/2000/svg" xmlns:xlink="http://www.w3.org/1999/xlink" x="0px" y="0px"
	 viewBox="0 0 2560 1600" style="enable-background:new 0 0 2560 1600;" xml:space="preserve">
<style type="text/css">
	.st0{fill:#FFD700;}
	.st1{fill:#FAFAED;}
	.st2{fill:#7A1B29;}
	.st3{fill:#EB690C;}
	.st4{fill:#B0481B;}
	.st5{opacity:0.6;fill:#603813;}
	.st6{fill:#CC5F29;}
	.st7{fill:#FEAA0F;}
</style>
<g>
	<g>
		<g>
			<path class="st0" d="M1378.52,1175.04c-6.36-3.55-13.99-2.41-19.26,2.95c-4.58,4.66-9.21,9.26-14.59,13.88
				c-7.88,7.23-17.23,15.61-27.43,23.44c-9.04,7.57-18.8,14.41-28.11,20.94c-38.19,26.28-80.3,46.98-125.15,61.54
				c-25.83,8.47-53.61,14.6-82.56,18.22c-7.55,0.96-13.65,7.34-15,15.72c-2.26,14.12-1.43,28.55,2.5,41.83
				c3.99,13.24,11.11,26.09,20.53,37.15c0.72,0.86,1.51,1.64,2.36,2.33c22.02,17.83,51.35,27.33,82.18,27.33
				c10.77,0,21.74-1.16,32.63-3.53c37.41-7.53,74.09-28.82,106.23-61.71c28.95-30.22,50.78-70.31,63.14-115.92
				c6.02-21.09,10.03-43.02,11.93-65.16C1388.61,1186.16,1384.87,1178.59,1378.52,1175.04z M1343.23,1247.64
				c-0.03,0.09-0.05,0.19-0.08,0.28c-10.6,39.2-29.17,73.46-53.59,98.95c-27.21,27.86-57.99,45.87-89.24,52.16
				c-32.46,7.04-64.9,1.05-87.08-16.14c-5.45-6.73-9.51-14.18-11.74-21.53c-0.86-2.93-1.44-6.01-1.74-9.15
				c25.73-3.98,50.51-9.86,73.84-17.49c47.77-15.52,92.7-37.62,133.64-65.8c9.56-6.71,20.4-14.29,29.99-22.35
				c2.72-2.08,5.4-4.21,8.02-6.37C1344.61,1242.7,1343.94,1245.18,1343.23,1247.64z"/>
			<path class="st0" d="M1087.91,1289.47c8.99-6.83,19.87-11.79,33.14-15.12c10.7-2.62,22.31-3.94,35.23-4.05
				c12.66-0.17,24.38-0.51,35.2-1.79c12.54-1.45,23.88-3.71,34.38-6.83c10.17-2.79,19.69-6.91,29.75-11.28l3.95-1.71
				c20.95-9.34,42.54-20.39,63.96-32.78c20.16-11.3,40.85-24.55,61.51-39.35c1.96-1.41,3.88-2.9,5.8-4.37l3.29-2.54
				c6.86-5.12,9.17-14.5,7.21-23.35c-1.94-8.85-9.63-15.59-17.85-16.68l-3.53-0.47c-31.59-3.99-56.03-6.38-78.97-7.72
				c-17.31-1.28-34.63-1.98-51.92-2.43c-2.11,0.02-4.86,0.38-7.19,1.3c-87.11,34.61-182.74,55.05-276.56,59.1
				c-2.81,0.11-5.58,0.9-8.1,2.28c-0.08,0.04-1.74,1.04-1.82,1.09c-0.7,0.38-1.36,0.83-2,1.3l-23.51,17.49
				c-2.75,2.26-4.81,4.27-7.23,7.02c-7.56,8.62-14.23,20.9-19.67,36.11c-5.39,14.2-7.15,28.15-5.23,41.54
				c0.19,1.45,0.48,2.75,0.87,4.24c1.14,5.29,4.05,9.94,8.12,12.99c8.47,6.36,19.92,11.32,32.73,14.31
				c10.62,2.69,22.19,3.73,33.39,4.71l5.35,0.47c9.98,1.26,19.71,1.47,29.15,1.71l10.83,0.3c1.71,0.02,3.43,0.04,5.14,0.04
				c9.13,0,18.24-0.41,27.33-0.9c6.42-0.34,12.31-4.09,15.76-10.07C1072.25,1303.99,1079.58,1295.57,1087.91,1289.47z
				 M1065.66,1253.32c-9.86,7.19-18.91,16.61-26.59,27.64c-6.69,0.28-13.37,0.43-19.85,0.34l-11.05-0.32
				c-8.51-0.19-17.03-0.36-26.05-1.47l-6.07-0.56c-10.21-0.92-19.87-1.77-28.01-3.84c-4.05-0.94-7.81-2.13-11.08-3.48
				c0.43-3.24,1.34-6.74,2.79-10.54c4.81-13.46,9.24-19.71,11.38-22.14c0.83-0.94,1.57-1.66,1.67-1.79l19.42-14.37
				c94.85-4.71,191.32-25.42,279.6-60.04c15.48,0.43,31.01,1.11,46.77,2.28c7.85,0.45,15.87,1.02,24.3,1.77
				c-5.89,3.58-11.76,7.04-17.62,10.3c-20.49,11.84-40.87,22.29-60.39,30.99l-3.82,1.66c-9.23,3.99-17.17,7.44-25.16,9.64
				c-8.8,2.6-18.16,4.46-28.64,5.67c-9.34,1.11-19.13,1.43-31.05,1.54c-15.99,0.13-30.31,1.79-43.9,5.12
				C1093.94,1236.36,1078.57,1243.49,1065.66,1253.32z"/>
		</g>
		<g>
			<path class="st0" d="M1589.92,1415.66c-0.59-0.13-1.2-0.34-1.8-0.5l-0.01,0L1589.92,1415.66z"/>
			<path class="st0" d="M2123.35,1176c-22.84,16.86-45.68,36.8-65.87,57.24c-20.45,20.79-41.23,39.92-61.41,58.58
				c-10.95,7.6-22.35,16.3-33.79,22.55c-11.47,6.44-23.28,11.38-35.42,14.48c-25.34,5.79-51.74,10.52-79.68,11.67
				c-27.88,1.31-56.65,0.86-86.34,2.36c-14.83,0.77-29.88,1.92-45.09,4.39c-7.41,0.97-15.68,2.86-23.52,4.58l-22.13,7.96
				l-20.57,8.25l-10.14,4.23c-2.36,0.68-4.65,1.43-6.94,2.29c-5.37,1.23-11.35,2.04-16.72,2.07c-2.73,0.02-5.42-0.12-8.06-0.43
				c-1.99-0.11-7.71-1.46-6.68-0.97l-1.82-0.5c-4.02-0.91-6.86-2.32-8.5-3.7c-0.82-0.72-1.47-1.44-2.07-2.36l-4.22-7.46
				c-6.43-11.46-13.18-22.75-20.1-33.93c-13.89-22.32-28.66-44.1-44.37-65.18c-15.64-21.13-32.28-41.52-49.61-61.28
				c-8.67-9.78-17.73-19.64-26.54-28.94c-9.05-9.55-18.68-19.51-30.51-28.67c-5.4-4.11-12.8-5.61-19.69-3.22
				c-7.57,2.63-12.4,9.24-13.56,16.65l-0.07,0.12c-2.1,3.75-3.06,8.19-2.49,12.78l0.1,0.82l1.87,14.85
				c0.52,5.14,0.42,10.25,0.67,15.38c0.44,10.29,0.88,20.48-0.1,30.56c-1.55,20.23-5.26,40.52-11.59,59.43
				c-12.64,38.25-35.36,73.12-65.9,98.58c-30.4,25.45-68.92,41.79-108.06,45c-19.55,1.61-39.19-0.11-57.38-5.63
				c-18.24-5.41-35.12-15.03-47.5-27.44l-0.15-0.15c-0.62-0.61-1.28-1.19-1.98-1.74c-10.41-8.03-19.19-18.04-25.38-29.22
				c-6.28-11.32-9.66-23.16-9.98-35.83c-0.3-10.99-9.14-20.02-20.27-20.36l-0.74-0.02l-33.77-1.01
				c-12.82-0.88-23.25-1.46-33.11-3.46c-10.43-2.07-19.32-4.93-26.8-9.41c-1.77-1.01-3.88-2.48-5.44-3.63
				c-1.34-1.02-2.67-2.22-3.98-3.61c-2.61-2.78-5.02-6.22-6.99-9.95c-0.91-1.7-2.12-3.4-3.53-4.85c-3.66-3.76-6.78-8.43-8.79-13.16
				c-0.99-2.36-1.71-4.72-2.14-6.96c-0.43-2.58-0.8-5.63-0.81-8.29c-0.09-5.59,0.75-11.46,2.4-17.21c1.41-5.48,4.74-11.7,7.62-18.05
				l0.47-1.03c1.01-2.24,1.64-4.7,1.8-7.29c0.72-11.56-8.06-21.53-19.63-22.25c-81.97-5.14-163.3-23.18-236.52-58.95
				c-73.27-35.48-139.13-86.85-189.07-150.66c-24.9-31.88-46.05-66.76-61-104.16c-15.79-34.17-21.12-72.66-13.61-112.42
				c6.44-39.61,22.11-78.57,40.38-116.11c18.52-37.53,39.6-74.3,61.05-110.79c-25.98,33.39-52.61,66.5-75.32,102.77
				c-22.81,36.08-43.77,74.34-55.93,117.36c-3.52,10.58-5.11,21.83-7.43,32.92c-0.96,11.35-2.98,22.73-2.27,34.4
				c-0.51,23.06,4.65,47.52,13.49,68.53c17.86,40.47,40.44,78.72,67.6,113.34c54.31,69.33,125.18,124.46,203.88,162.59
				c70.23,34.27,146.78,53.13,223.66,60.68c-2.27,8.67-3.65,17.69-3.5,27c0.08,5.25,0.61,10.07,1.52,15.27
				c1.04,5.52,2.69,10.75,4.76,15.67c3.71,8.66,8.89,16.28,15.05,23.2c3.38,6.02,7.33,11.79,12.3,17.1
				c2.77,2.94,5.84,5.76,9.23,8.33c3.22,2.39,6,4.29,9.37,6.27c12.97,7.76,27.16,11.93,39.98,14.47c13.46,2.72,26.85,3.35,37.7,4.12
				c6.36,0.2,12.61,0.46,18.91,0.68c2.49,12.35,6.76,24.4,12.77,35.06c9.19,16.57,21.81,30.83,36.5,42.16l-2.13-1.88
				c37.75,37.35,90.04,49.25,138.16,45.4c48.5-4.06,94.55-23.79,131.51-54.61c37.03-30.89,63.94-72.53,78.83-117.58
				c7.58-22.77,11.8-46.03,13.61-69.56c0.74-7.96,0.71-15.88,0.51-23.78c5.56,6.08,11.09,12.2,16.49,18.13
				c16.56,18.89,32.47,38.36,47.41,58.56c15.01,20.15,29.13,40.96,42.4,62.29c6.61,10.68,13.06,21.46,19.2,32.42l5.33,9.29
				c2.85,4.5,6.51,8.65,10.59,12.08c7.7,6.41,16.34,9.91,24.33,11.93c20.15,5.02,36.77,4.06,54.05,0.22l13.55-4.46l9.77-4.08
				l19.48-7.81l18.43-6.75c6.22-1.24,11.97-2.67,18.83-3.57c13.19-2.16,26.86-3.23,40.75-3.94c27.78-1.43,56.58-0.98,86.17-2.35
				c14.8-0.76,29.88-1.74,45.07-3.63c15.24-2.05,30.44-6.08,45.18-11.66c15.23-5.79,29.39-13.77,42.08-22.92
				c12.91-9.15,23.4-19.25,35-29.47c19.83-22.67,39.02-44.94,56.61-67.32c17.94-22.68,36.54-42.81,57.8-62.91
				c20.35-20.55,40.2-42.46,54.37-67.66C2167.88,1139.95,2145.95,1158.49,2123.35,1176z"/>
		</g>
		<path class="st1" d="M2218.83,990.71c-3.57-17.67-11.05-33.07-16.63-47.34c-5.73-14.27-9.03-27.68-6.59-38.06
			c0.86-5,3.61-10.54,7.08-18.18c3.31-7.46,7.79-17.06,8.24-30.62c0.59-13.75-7.62-29.15-16.83-36.31
			c-8.97-7.86-17.63-11.56-24.99-15.38c-28.97-15.28-61.15-28.11-92.99-36.92c-64.19-18.17-129.96-24.26-194.03-28.74
			c-61.34-4.31-121.91-7.62-180.56-17.92c-0.02-0.02-0.02-0.03-0.04-0.05c-2.81-2.71-6.77-4.92-10.21-5.92
			c-2.69-0.74-2.43-0.5-3.8-0.79l-1.57-0.25c-7.52-10.22-17.42-17.96-28.94-23.03c-7.59-3.22-16.04-5.23-25.03-5.22
			c-2.08-0.02-4.2,0.14-6.32,0.4c-2.07-5.72-3.83-12.82-5.86-21.56c-3.93-16.32-9.64-30.38-15.1-44.6
			c-11.34-28.41-24.91-55.92-40.62-82.17c-31.49-52.45-70.86-100.17-117.97-139.84c-46.97-39.65-100.34-70.46-155.68-94.72
			c-55.78-24.19-112.12-42.58-171.4-57.11c-59.82-13.45-122.47-16.62-183.76-6.26c-15.32,2.62-30.58,6.14-45.61,10.73
			c-7.51,2.3-14.97,4.86-22.34,7.71c-8.76,3.3-16.47,7.88-23.17,12.08c-13.36,8.51-24.98,17.26-34.79,21.52
			c-3.16,1.43-11.71,3.79-19,6.12c-7.48,2.14-14.65,4.92-21.89,7.57c-14.42,5.41-28.62,11.27-42.53,17.63
			c-14.03,6.19-26.83,14.71-39.58,22.99c-25.43,16.74-49.53,35.14-72.14,55.07c-44.99,39.95-85.16,85.5-114.57,137
			c37.6-45.73,82.94-83.42,131.06-115.5c47.95-32.74,101-55.58,152.44-77.89c6.6-2.41,13.17-4.98,19.88-6.88
			c6.7-2.26,12.53-3.43,23-7.61c17.19-7.8,28.98-17.44,40.55-24.56c5.76-3.61,10.84-6.55,15.91-8.42c6.37-2.47,12.86-4.7,19.45-6.71
			c13.16-4.02,26.68-7.15,40.41-9.49c55.07-9.32,112.42-6.56,167.51,5.84c111.01,27.97,222.56,69.91,309.2,142.95
			c43.14,36.28,79.89,80.73,109.02,129.3c14.56,24.34,27.16,49.86,37.66,76.2c5.11,13.26,10.43,26.67,13.32,39.06
			c1.68,6.72,3.21,14.36,6.03,22.98c2.75,8.55,7.38,18.22,14.26,26.32l9.1,10.72l13.06-4.22l7.16-2.31c1.13-0.2,2.19-0.42,3.46-0.39
			c2.47,0,5.4,0.58,8.35,1.83c5.94,2.49,11.5,7.76,14.01,12.92l4.84,9.93l11.63,1.69l0.54,0.08l1.05,4.35l13.11,2.45
			c64.94,12.16,129.94,15.29,193.5,19.8c63.56,4.4,126.21,10.43,185.57,27.26c29.84,8.47,57.68,19.11,85.2,34.13
			c6.83,3.52,12.57,7.24,15.67,9.99c3.07,3.15,3.17,2.92,4.02,5.37c0.62,2.57-0.2,8.46-2.61,15.88c-2.13,7.3-5.64,16.79-6.15,27.84
			c-1.24,21.9,7.63,39.77,15.5,54.13c8.09,14.63,16.55,27.38,21.43,40.74c4.84,13.52,6.57,28.66,5.82,43.95
			c-0.77,15.16-4.08,31.07-6.32,46.94l-0.08,0.39c-0.38,6.3-1.84,12.68-4.05,18.86c-2.09,6.25-5.37,12.08-7.89,18.34
			c3.47-5.67,7.74-10.92,10.97-16.94c3.33-5.94,6.05-12.37,7.67-19.27l-0.08,0.38c4.82-15.35,10.99-30.21,14.28-46.88
			C2221.38,1025.7,2222.22,1008.22,2218.83,990.71z"/>
		<g>
			<path class="st2" d="M1400.58,1193.46c-0.38-5.18-1.2-10.31-1.87-15.44c-0.2-1.66-0.91-7.36-2.72-11.83
				c-1.77-4.69-4.48-8.61-6.53-11.52c-3.68,0.77-8.72,2.07-13.17,4.69c-2.13,1.19-4.42,2.91-5.78,4.01l-2.94,2.2l-11.85,8.67
				c-7.9,5.76-15.92,11.33-24.11,16.65c-16.35,10.65-33.17,20.53-50.49,29.36c-17.2,9.04-34.77,17.32-52.75,24.58
				c-9.28,3.64-17.74,7.13-26.27,9.26c-8.67,2.32-17.65,3.87-26.78,4.84c-9.17,0.98-18.36,1.31-27.9,1.26
				c-10.86,0.09-22.05,0.98-33.52,3.51c-11.4,2.61-23.24,6.83-33.92,14.21c-10.76,7.15-19.78,17.4-25.79,28.53
				c-12.55,22.44-14.14,49.48-6.78,73c7.49,23.68,23.02,43.65,42.3,57.48c39.23,27.04,87.16,31.48,129.95,22.85
				c43.16-8.79,82.69-30.81,112.81-61.77c30.32-31.01,50.96-70.23,61.17-111.09c4.95-20.52,7.67-41.43,7.97-62.28
				C1401.78,1214.21,1401.58,1203.8,1400.58,1193.46z M1376.06,1223.25c-1.66,19-5.55,37.69-11.28,55.59
				c-10.9,35.98-30.37,68.92-57.09,93.86c-26.96,24.62-59.93,43.22-95.3,49.57c-34.83,6.76-72.81,1.4-99.45-17.9
				c-13.28-9.15-23.36-22.3-28.21-36.64c-4.75-14.38-3.82-30.44,3.06-43.03c6.6-12.92,18.33-20.73,34.51-24.61
				c7.99-1.95,16.8-2.73,25.85-3.11c10.41-0.41,21.16-1.27,31.77-2.89c10.64-1.62,21.3-3.94,31.77-7.25
				c5.23-1.66,10.42-3.51,15.52-5.67l14.15-6.24c18.65-8.57,36.87-18.04,54.46-28.51c17.52-10.62,34.37-22.25,50.61-34.61
				c8.11-6.18,16.07-12.57,23.8-19.2l6.81-6.1c0.1,2.7,0.25,5.41,0.18,8.12C1377.39,1204.19,1376.9,1213.76,1376.06,1223.25z"/>
			<path class="st3" d="M1388.58,1182.97c-0.38-5.18-1.21-10.31-1.87-15.44c-0.2-1.66-0.9-7.36-2.72-11.84
				c-1.77-4.69-4.48-8.6-6.53-11.52c-3.68,0.77-8.72,2.07-13.17,4.69c-2.13,1.19-4.42,2.91-5.78,4.01l-2.94,2.2l-11.85,8.67
				c-7.9,5.76-15.92,11.33-24.1,16.65c-16.35,10.65-33.17,20.53-50.49,29.36c-17.2,9.04-34.77,17.32-52.75,24.58
				c-9.28,3.64-17.74,7.13-26.27,9.26c-8.67,2.32-17.65,3.87-26.78,4.84c-9.17,0.98-18.36,1.31-27.9,1.26
				c-10.86,0.09-22.05,0.98-33.52,3.51c-11.4,2.61-23.24,6.83-33.92,14.21c-10.76,7.15-19.78,17.4-25.79,28.53
				c-12.55,22.44-14.14,49.48-6.78,73c7.49,23.68,23.02,43.65,42.3,57.48c39.23,27.04,87.16,31.48,129.95,22.85
				c43.16-8.79,82.69-30.81,112.81-61.77c30.32-31.01,50.96-70.23,61.17-111.09c4.95-20.52,7.67-41.43,7.97-62.28
				C1389.78,1203.72,1389.58,1193.31,1388.58,1182.97z M1364.06,1212.76c-1.66,19-5.54,37.69-11.28,55.59
				c-10.9,35.98-30.37,68.92-57.09,93.85c-26.96,24.62-59.93,43.22-95.3,49.57c-34.83,6.76-72.81,1.4-99.45-17.9
				c-13.28-9.15-23.36-22.3-28.21-36.64c-4.75-14.38-3.82-30.44,3.06-43.03c6.6-12.92,18.33-20.73,34.51-24.61
				c7.99-1.95,16.8-2.73,25.85-3.12c10.41-0.41,21.16-1.27,31.77-2.89c10.64-1.62,21.3-3.94,31.77-7.25
				c5.23-1.66,10.42-3.51,15.52-5.67l14.15-6.24c18.65-8.57,36.87-18.04,54.46-28.51c17.52-10.62,34.37-22.25,50.61-34.61
				c8.12-6.18,16.07-12.57,23.8-19.2l6.81-6.1c0.1,2.7,0.25,5.41,0.18,8.12C1365.39,1193.7,1364.89,1203.27,1364.06,1212.76z"/>
			<path class="st2" d="M1381.22,1159.54c-3.84-1.41-7.81-2.58-11.69-3.52l-5.67-1.25l-4.15-0.81c-11.11-2-22.16-4.31-33.34-6
				c-22.3-3.68-44.7-6.99-67.28-9.3c-45.14-4.48-90.83-6.14-136.74-3c-45.86,3.03-92.08,12.53-135.84,30.95
				c-11.08,4.17-21.36,10.61-32.04,15.89l-15.1,9.94l-7.53,5c-2.92,2.13-5.97,4.78-8.54,7.4c-10.42,10.76-16.57,22.89-21.35,34.43
				c-5.22,12.25-8.33,27.48-5.93,42.76c2.14,15.54,12.03,31.09,24.54,39.9c12.49,9.08,25.82,13.1,38.22,15.69
				c12.67,2.67,24.21,3.12,35.72,4.02c11.57,1.17,23.2,0.92,34.8,1.19c46.42,0.08,92.74-6.75,137.09-19.72
				c44.39-12.87,87.07-31.39,126.32-55.5c9.76-6.12,19.5-12.23,28.72-19.13c9.49-6.5,18.51-13.63,27.39-20.91
				c9.13-6.97,17.34-15.05,25.92-22.64c3.53-3.01,10.43-9.98,15.1-16.49c5-6.79,8.61-13.82,11.81-19.53
				C1395.81,1166,1388.98,1162.35,1381.22,1159.54z M1367.26,1179.62c-3.46,1.14-4.25,2.34-9.4,6.4
				c-8.55,6.77-16.63,14.08-25.64,20.24c-8.74,6.49-17.58,12.81-26.86,18.5c-9,6.09-18.49,11.4-27.95,16.71
				c-37.7,21.51-78.28,37.75-120.13,48.51c-41.86,10.45-84.83,17.16-127.9,16.42c-10.74-0.38-21.52-0.21-32.2-1.43
				c-10.76-0.92-21.64-1.54-30.86-3.67c-9.39-1.97-17.83-5.14-23.41-9.4c-5.54-4.33-8.53-9.1-9.57-15.79
				c-1.08-6.9-0.11-14.54,3.35-22.82c3.58-9.1,8.04-17.19,13.23-22.56c1.34-1.38,2.51-2.43,4.08-3.61l6.42-4.3l12.81-8.67
				c9.35-4.61,18.02-10.37,27.89-14.13c38.5-16.89,81.07-25.56,124.2-30.1c43.26-4.28,87.3-3.97,131.25-1.04
				c22.01,1.16,44.01,3.33,66,5.86c11.01,1.11,21.95,2.88,32.95,4.26l4.12,0.52c1.04,0.14,1.74,0.21,2.59,0.24
				c1.62,0.06,3.15-0.12,4.8-0.52C1370.26,1178.41,1370.3,1178.64,1367.26,1179.62z"/>
			<path class="st3" d="M1370.74,1144.86c-3.84-1.41-7.81-2.58-11.69-3.52l-5.67-1.25l-4.15-0.81c-11.11-2-22.16-4.31-33.34-6
				c-22.3-3.68-44.7-6.99-67.28-9.3c-45.14-4.48-90.83-6.14-136.74-3c-45.86,3.03-92.08,12.53-135.84,30.95
				c-11.08,4.17-21.36,10.61-32.04,15.89l-15.1,9.94l-7.53,5c-2.92,2.13-5.97,4.78-8.54,7.4c-10.42,10.76-16.57,22.89-21.35,34.44
				c-5.22,12.25-8.33,27.48-5.93,42.75c2.14,15.54,12.03,31.09,24.54,39.9c12.49,9.08,25.82,13.1,38.22,15.69
				c12.67,2.67,24.21,3.13,35.72,4.02c11.57,1.17,23.2,0.92,34.8,1.19c46.42,0.08,92.74-6.75,137.09-19.72
				c44.39-12.87,87.07-31.39,126.32-55.5c9.76-6.12,19.5-12.23,28.72-19.13c9.49-6.5,18.51-13.63,27.39-20.91
				c9.13-6.97,17.34-15.05,25.92-22.64c3.53-3.01,10.43-9.98,15.1-16.49c5-6.79,8.61-13.82,11.81-19.53
				C1385.33,1151.32,1378.49,1147.67,1370.74,1144.86z M1347.37,1171.34c-8.55,6.77-16.63,14.08-25.64,20.23
				c-8.74,6.49-17.58,12.81-26.86,18.5c-9,6.09-18.49,11.4-27.95,16.71c-37.7,21.51-78.28,37.75-120.13,48.51
				c-41.86,10.45-84.83,17.16-127.9,16.42c-10.74-0.38-21.52-0.21-32.2-1.43c-10.75-0.92-21.64-1.54-30.86-3.67
				c-9.39-1.97-17.83-5.14-23.41-9.4c-5.54-4.33-8.53-9.1-9.57-15.79c-1.08-6.9-0.11-14.54,3.35-22.82
				c3.58-9.1,8.04-17.19,13.23-22.56c1.34-1.38,2.51-2.43,4.08-3.61l6.42-4.3l12.81-8.67c9.35-4.61,18.02-10.37,27.89-14.13
				c38.5-16.89,81.07-25.56,124.2-30.09c43.26-4.28,87.3-3.97,131.25-1.04c22.01,1.16,44.01,3.33,66,5.86
				c11.01,1.11,21.95,2.88,32.95,4.26l4.12,0.52c1.05,0.14,1.74,0.21,2.59,0.24C1353.34,1165.12,1352.52,1167.28,1347.37,1171.34z"
				/>
			<path class="st2" d="M935.5,1210.31c-6.55,11.06-11.31,21.5-15.38,33.69c-8.98-2.93-17.9-5.59-27.33-5.02
				c2.35-11.87,6.93-23.3,13.43-33.51C916.13,1204.39,925.87,1207.77,935.5,1210.31z"/>
			<path class="st2" d="M1320.75,1157.47c14.7-0.23,29.44,3.06,42.66,9.52c0-3.26,2.09-7.22,2.09-10.48
				c-7.23-3.36-14.1-6.83-21.97-8.11C1335.66,1147.11,1327.06,1152.59,1320.75,1157.47z"/>
			<path class="st4" d="M2189.35,866.21c5.86-26.82-16.97-35.84-36.78-46.14c-22.84-11.88-46.89-21.31-71.49-28.84
				c-48.96-14.99-99.92-22.48-150.8-27.18c-85.96-7.93-172.99-8.45-257.38-26.59c-15.74-3.38-31.64-7.5-45.26-16.07
				c-25.91-16.32-23.52-39.81-32.22-65.56c-9.1-26.93-20.28-53.16-33.4-78.38c-25.89-49.79-59.32-95.69-99.02-135.37
				c-88.48-88.43-205.82-136.41-324.1-169.11c-58.71-16.23-120.97-22.31-181.56-14.89c-28.48,3.49-56.73,9.96-83.48,20.43
				c-21.13,8.27-42.95,29.84-63.46,35.54c-113.26,31.46-242.33,124.15-310.79,224.5S343.91,768,389.48,880.61
				c60.02,148.31,196.67,259.02,350.01,304.69c153.34,45.67,327.58,35.52,477.79-19.6c46.45,4.31,93.65,0.43,138.78-11.39
				c29.57-7.75,57.74,24.32,78.68,46.59c52.52,55.86,98.05,118.29,135.19,185.36c15.43,27.86,61.27,19.79,90.2,6.47
				c83.69-38.53,186.07-8,273.55-36.91c74.45-24.61,118.17-102.28,177.45-153.61c27.1-23.46,54.57-47.34,74.13-77.38
				c12.99-19.93,16.7-42.07,22.22-65.21c5.52-23.14,6.75-47.82-0.46-70.49c-9.58-30.14-33.83-57.84-28.41-89
				C2180.64,888.44,2186.81,877.82,2189.35,866.21z"/>
			<path class="st5" d="M1587.78,869.41c90.34,14.46,177.01,51.28,250.13,106.28c13.79-17.11,28.36-30.35,47.09-41.85
				C1793.63,892.81,1687.89,865.9,1587.78,869.41z"/>
			<path class="st6" d="M1587.13,728.31c-17.63,11.65-24.58,19.42-42.21,31.07c-91.95-164.38-233.09-302.47-399.56-390.59
				c9.27,28.06,11,59.16-0.61,86.33c-128.26-71.86-276.03-104.59-421.17-81.18c34.19-30.43,78.88-48.83,124.59-51.29
				c39.61-27.84,89.72-43.58,138.14-43.86c48.41-0.27,96.26,10.07,142.98,22.76c99.62,27.06,197.73,65.91,279.02,129.54
				c81.29,63.63,144.75,154.38,160.03,256.48C1581.88,698.94,1586.06,710.66,1587.13,728.31z"/>
			<path class="st6" d="M1647.75,744.15c100.7,13.73,201.4,27.46,302.1,41.18c68.21,9.3,137.98,19.08,199.07,50.81
				c8.98,4.66,18.03,7.83,22.2,17.04c4.17,9.22,3.04,20.62-2.85,28.84c-14.83-16.96-39.76-21.7-62.27-20.79
				c-22.51,0.91-44.15,8.46-65.42,15.9c-21.27,7.44-42.94,14.93-65.45,15.72c-5.98-20.97-27.99-36.1-47.61-45.61
				c-106.94-51.81-227.27-67.25-345.18-82C1599.47,756.11,1628.9,748.79,1647.75,744.15z"/>
			<path class="st5" d="M1414.92,987.57c10.63,9,22.23,16.86,34.53,23.41c3.37-28.04,6.99-56.46,19.11-81.97
				c12.12-25.51,34.54-47.85,62.44-52.26c0.8-22.22,14.03-44.87,33.72-55.19c11.13-23.62,29.41-43.08,51.82-56.48
				c-44.69,19.64-87.45,45.28-124.86,76.64c-21.28,17.85-41.29,37.62-56.34,60.96C1420.3,926.03,1414.76,959.8,1414.92,987.57z"/>
			<path class="st5" d="M1568.18,739.19c-3.73-4.2-8.19-5.08-11.92-9.27c-19.3,19.78-53.22,25.18-77.32,11.65
				c-7.57,26.14-29.84,47.48-56.28,53.91c-26.44,6.44-56.63-6.38-75.36-26.12c14.56,38.16,15.07,81.51,1.4,120
				c-13.66,38.49-37.51,79.93-72.88,100.37c31.73-5.6,63.18-12.83,94.17-21.67C1426.97,887.02,1496.84,807.93,1568.18,739.19z"/>
			<path class="st5" d="M1684.2,1279.17c-18.28,13.99-44.29,12.08-61.04-3.72c30.67,3.8,65.63-3.97,90.28-22.61
				c-24.53,14-54.3,11.19-76.65-6.08c15.02-0.84,29.98-4.84,41.98-13.91c-11.26,4.58-21.57,6.6-33,2.46
				c33.99-53.2,81.34-96.91,133.3-132.78c51.95-35.87,108.63-64.3,165.65-91.4c45.34-21.54,93.8-40.06,143.99-40.59
				c-0.15,16.78-2.44,34.53-10.44,49.29c10.57-10.49,21.17-21.46,25.67-35.65c0.02,34.18-15.88,69.22-43.28,89.65
				c30.86-13.22,55.3-43.9,55.7-77.47c13.44,11.43,25.11,27.98,25.14,45.62c8.91-22.82,4.74-46.01-3.41-69.12
				c-5.06-14.38,0.81-29.97,4.42-44.78c3.61-14.81,3.63-33.24-8.79-42.07c-8.78-6.24-20.61-5.26-31.27-3.72
				c-93.87,13.56-187.81,51.25-264.31,107.31c-1.66,25.27-22.61,45.23-45,57.05c-22.4,11.82-47.48,18.26-69,31.6
				c-33.16,20.55-54.52,55.2-74.67,88.6c-16.22,26.88-32.5,53.88-44.68,82.82c-4.43,10.52-8.36,21.71-7.4,33.08
				c0.96,11.37,8.07,22.95,19.13,25.76C1637.79,1313.91,1667.98,1293.96,1684.2,1279.17z"/>
			<path class="st2" d="M831.5,315.34c35.13-2.74,70.52-1.81,105.79,0.86c35.22,3.28,70.26,9.12,104.82,17.19
				c69.15,16.18,135.81,43.13,197.5,78.65c61.46,35.91,117.93,80.43,166.3,132.43c24.16,26,46.59,53.54,66.93,82.49
				c19.81,29.31,38.18,59.58,53.21,91.44c-18.85-29.73-38.65-58.71-60.8-85.8c-21.63-27.46-44.97-53.49-69.96-77.76
				c-49.9-48.55-105.2-91.45-165.36-126.12c-59.94-35.06-124.63-61.78-191.54-81.03c-33.47-9.65-67.66-16.98-102.23-22.15
				C901.64,319.75,866.66,316.94,831.5,315.34z"/>
			<path class="st2" d="M1446.69,678.62c-3.9,0-7.9-0.28-11.96-0.87c-1.88-0.28-3.46-1.59-4.06-3.41c-0.59-1.82-0.12-3.82,1.25-5.16
				c23.83-23.45,44.26-34.77,75.39-41.77c0.36-0.08,0.74-0.12,1.1-0.12c1.49,0,2.92,0.66,3.88,1.82c1.21,1.48,1.49,3.49,0.74,5.23
				C1500.89,662.07,1476.1,678.62,1446.69,678.62L1446.69,678.62z M1321.96,576.59c-2.08,0-3.95-1.28-4.7-3.23
				c-0.75-1.98-0.2-4.23,1.43-5.62c37.98-32.72,78.29-49.06,126.84-51.4c0.08,0,0.16,0,0.25,0c2.02,0,3.85,1.2,4.64,3.08
				c0.82,1.93,0.34,4.19-1.2,5.64c-36.47,34.02-76.86,50.4-127.14,51.53C1322.04,576.59,1321.99,576.59,1321.96,576.59z
				 M1168.95,495.15c-1.49,0-2.93-0.66-3.92-1.87c-1.43-1.75-1.49-4.24-0.18-6.08c32.79-46.01,85.55-73.47,141.16-73.47
				c7.65,0,15.4,0.52,23.01,1.56c2.23,0.3,3.98,2.03,4.31,4.26c0.33,2.23-0.87,4.39-2.93,5.31l-79.45,35.52l-80.01,34.36
				C1170.29,495.02,1169.62,495.15,1168.95,495.15z M977.07,427.23c-1.47,0-2.93-0.65-3.92-1.87c-1.49-1.83-1.49-4.49,0-6.32
				c44.03-54.3,108.95-85.43,178.13-85.43c11.8,0,23.68,0.95,35.33,2.8c2.34,0.36,4.11,2.33,4.24,4.69s-1.41,4.51-3.69,5.13
				c-40.62,11.21-76.24,24.28-105.74,35.59c-31.13,12.14-65.07,25.99-102.07,44.88C978.63,427.05,977.84,427.23,977.07,427.23z
				 M785.92,399.35c-1.39,0-2.77-0.57-3.75-1.67c-1.57-1.75-1.72-4.36-0.34-6.28c41.83-58.74,109.26-93.79,180.37-93.79
				c4.7,0,9.42,0.15,14.16,0.44c2.34,0.16,4.26,1.9,4.64,4.21c0.38,2.33-0.88,4.59-3.06,5.47c-35.62,14.58-67.64,29.82-95.89,43.26
				c-28.12,13.57-60.02,28.95-93.66,47.71C787.61,399.15,786.75,399.35,785.92,399.35z"/>
			<path class="st3" d="M976.02,296.8c-35.02,14.33-65.6,28.83-96.15,43.37c-30.47,14.7-60.94,29.45-93.95,47.87
				C829.78,326.45,901.35,291.97,976.02,296.8z M977.08,415.92c35.74-18.24,69.02-32.03,102.55-45.1
				c33.6-12.87,67.49-25.06,106.2-35.73C1107.34,322.59,1027.67,353.52,977.08,415.92z M1168.95,483.82
				c28.41-12.2,54.19-23.27,79.95-34.33c25.59-11.43,51.19-22.87,79.46-35.51C1266.51,405.61,1205.52,432.52,1168.95,483.82z
				 M1321.96,565.26c49.11-1.11,87.83-16.61,123.81-50.18C1397.58,517.4,1358.84,533.5,1321.96,565.26z M1435.44,666.49
				c32.18,4.62,59.89-10.55,72.96-40.44C1477.45,632.98,1458.2,644.07,1435.44,666.49z"/>
			<g>
				<path class="st7" d="M1362.46,1171.01c-63.02,56.16-135.21,98.2-214.08,119.29c-39.38,10.34-80.23,15.67-121.41,14.3
					c-20.59-0.75-41.17-2.66-61.67-7.09c-20.12-4.27-41.61-15.27-49.66-35.4c9.84,19.34,31.03,27.93,50.8,30.88
					c20.27,3,40.87,3.8,61.09,3.62c40.55-0.46,80.34-6.67,118.89-16.87C1223.56,1258.92,1295.44,1221.09,1362.46,1171.01z"/>
			</g>
			<path class="st7" d="M1063.72,1367.33c18.3,33.12,54.07,52.1,89.83,54.86c36.07,3,72.91-6.1,104.45-23.81
				c32.12-16.95,59.04-43.22,77.4-74.73c18.5-31.48,28.53-68.14,29.1-105.56c4.69,37.3-2.99,76.25-20.62,110.24
				c-17.55,34.2-46.29,62.28-79.84,81.07c-33.95,17.83-73.09,27.67-111.6,22.35c-19.11-2.72-37.8-9.51-53.61-20.48
				C1083.3,1400.06,1070.29,1384.99,1063.72,1367.33z"/>
			<path class="st2" d="M1066.59,1339.41c0.15,9.14,2.41,18.14,6.35,26.39c-5.54-1.78-11.72-1.5-17.07,0.78s-9.46,7.12-12.02,12.34
				c-5.89-12.33-9.25-25.86-9.82-39.52C1044.45,1340.1,1056.26,1340.8,1066.59,1339.41z"/>
			<path class="st2" d="M1382.98,1190.23c2.17,8.21,1.83,15.09,2.1,23.59c-6.97,1.6-12.44,4.79-17.38,9.96
				c0.44-6.47-0.73-13.05-3.39-18.96C1371.3,1202.2,1377.83,1195.65,1382.98,1190.23z"/>
			<g>
				<path class="st7" d="M925.68,301.85c-43.86,16.15-80.08,35.81-117.42,63.89C839.09,330.44,879.82,308.31,925.68,301.85z"/>
			</g>
			<g>
				<path class="st7" d="M1145.22,332.99c-50.81,10.08-93.57,27.57-136.77,56.11C1045.66,352.79,1093.87,333.09,1145.22,332.99z"/>
			</g>
			<g>
				<path class="st7" d="M1308.14,411.49c-42.95,9.01-78.5,24.4-114.35,49.68C1223.23,428.38,1264.62,410.47,1308.14,411.49z"/>
			</g>
			<g>
				<path class="st7" d="M1429.79,520.11c-30.87,10.45-56.86,20.55-86.61,33.83C1367.8,532.53,1397.55,520.88,1429.79,520.11z"/>
			</g>
			<g>
				<path class="st7" d="M1494.04,632.6c-14.27,10.86-26.62,17.92-43.14,24.87C1461.44,643.08,1476.47,634.33,1494.04,632.6z"/>
			</g>
			<path class="st2" d="M2156.56,999.1c-0.8-7.02-2.82-14.07-6.31-20.71c-1.84-3.27-3.86-6.53-6.57-9.34
				c-2.5-2.76-2.8-3.12-3.81-5.24c-3.2-7.44-0.67-19,3.65-30.01c2.11-5.91,4.36-12.19,5.56-19.32c1.21-7.01,1.14-15.41-2.33-23.07
				c-7.57-15.91-24.24-21.97-38.77-21.76c-16.01,0.65-27.21,8.73-37.24,10.68c-12.06,2.68-24.41,5.59-36.51,8.81
				c-24.26,6.5-48.22,14.24-71.61,23.56c-46.73,18.6-91.58,43.12-130.61,75.73l-2.68,2.24l-0.28,3.55
				c-1.49,18.5-18.89,33.99-38.17,42.36c-19.54,8.8-43.39,15.19-63.41,29.05c-20.13,13.19-37.15,30.25-51.66,48.81
				c-14.5,18.7-26.35,38.61-38.18,58.22l-17.76,29.15c-5.91,9.54-12.56,18.73-18.68,29.1c-6.02,10.29-11.5,21.64-13.81,34.43
				c-2.26,12.76-1.59,26.67,5.38,38.68c6.63,12.22,20.04,20.38,32.6,22c12.64,2.02,24.52,0.38,35.93-1.28
				c23.02-3.4,45.42-9.88,66.47-18.99c-22.14,6.02-44.75,9.46-67.29,10.42c-11.29,0.41-22.59,0.47-32.43-2.35
				c-9.94-2.7-17.18-8.8-20.76-17.33c-3.44-8.45-5.14-18.51-3.38-28.2c1.74-9.81,6.24-19.5,11.76-28.88
				c5.5-9.36,12.25-18.75,18.41-28.66l17.96-29.47c11.78-19.55,23.44-39.05,37.02-56.54c13.63-17.44,29.43-33.18,47.64-45.1
				c17.89-12.47,39.07-18.01,61.21-27.83c10.88-4.97,21.97-11.65,30.78-20.93c7.97-8.16,14.3-19.04,16.34-31.28
				c36.78-30.28,79.25-53.58,123.79-71.3c22.73-9.05,46.08-16.6,69.77-22.95c11.9-3.16,23.7-5.94,35.87-8.65
				c14.14-3.49,24.56-10.37,33.86-10.27c9.78-0.3,20.08,4.54,23.14,11.87c3.54,7.43,0.54,18.45-3.72,29.83
				c-4.1,11.72-9.48,26.12-3.26,42.36c1.34,3.69,5.12,8.12,6.83,9.9c1.64,1.65,2.89,3.74,4.11,5.84c2.26,4.38,3.44,9.53,4.11,14.81
				c3.94,21.75-5.74,44.45-21.17,63.18c-15.07,18.97-34.53,35.77-47.73,57.04c16-19.19,36.64-32.87,54.52-51
				c8.92-9.02,17.31-19.14,23.29-31.19C2154.49,1026.98,2157.64,1013.13,2156.56,999.1z"/>
			<path class="st5" d="M691.16,424.98c-58.64,61.61-95.29,144.53-97.82,229.55c-2.53,85.02,29.96,171.2,90.5,230.95
				c60.54,59.75,148.8,91.23,233.09,79.88c-33.51,22.62-75.9,34.65-116.32,34.13c179.44,50.31,375.1,46.24,552.86-9.75
				c11.8,2.94,25.38,3.2,35.83,9.41c80.04,47.54,176.61,63.8,251.43,119.2c-7.65,27.29-24.51,51.21-38.15,76.05
				c-13.64,24.84-25.99,51.51-26.69,79.84c-0.71,28.33,12.9,58.71,38.87,70.06c-8.22,1.91-12.8,9.87-15.18,17.97
				c-2.38,8.1-0.08,17.39,5.8,23.45c-30.57-27.06-56.12-62.42-78.15-96.78c-22.04-34.36-44.04-69.31-73.52-97.55
				c-29.47-28.24-67.76-49.53-108.58-50.15c-37.26,12.61-80.7,17.47-119.71,12.45c-123.37,56.26-268.56,64.6-401.07,35.9
				c-132.52-28.7-255.16-101.2-344.19-203.47c-43.5-49.97-80.08-109.6-85.76-175.61c-8.98-104.46,62.5-201.77,128.71-283.06
				c-4.78,14.41-2.38,23.6-7.16,38.01C550.99,496.92,620.27,455.01,691.16,424.98z"/>
			<path class="st2" d="M1391.16,1115.03c10.92-77.32,40.84-151.88,86.39-215.3c45.55-63.42,106.65-115.59,176.43-150.64
				c-60.16,13.11-115.06,48.84-156.37,94.49c-41.31,45.65-70.86,100.9-93.31,158.23
				C1390.01,1038.27,1380.97,1077.21,1391.16,1115.03z"/>
			<path class="st2" d="M1366.1,1139.25c9.48-56.95,19.01-114.15,36.85-169.05c17.84-54.9,44.46-107.85,84.32-149.62
				c38.61-40.45,87.97-68.83,137.78-94.26c-76.45,3.97-147.12,47.12-193.03,108.38c-45.91,61.26-70.59,135.89-86.62,210.74
				C1339.07,1074.98,1346.41,1116.36,1366.1,1139.25z"/>
			<path class="st2" d="M1829.44,1000.05c-63.42-65.26-150.17-109.75-243.12-122.76c93.74,4.66,186.98,41.38,260.34,104.41
				L1829.44,1000.05z"/>
			<path class="st2" d="M1368.3,1058.64c-16.28,1.4-32.91-0.84-48.28-6.39c-123.68,58.71-578.14,91.92-717.27-79.31
				c15.93,0.47,34.5-2.51,48.38-10.34c-44.07-5.57-82.06-37.08-103.44-76.02c-21.37-38.94-27.91-84.48-27.48-128.9
				c0.82-83.86,25.66-167.35,70.82-238.02c-58.56,60.09-106.75,132.92-128.59,213.94c-3.51-9.49-9.22-20.53-4.39-29.41
				c-27.43,84.37-28.91,174.43,11.75,253.28c40.66,78.85,113.76,140.34,198.4,166.91c-6.99-9.79-14.42-16.1-21.41-25.89
				c207.82,87.06,455,82.03,656.2-19.4C1320.82,1084.84,1351.8,1067.49,1368.3,1058.64z"/>
			<path class="st2" d="M1616.07,1178.43c-7.3,17.37-17.29,33.47-25.75,50.3c-8.47,16.83-15.51,34.86-16.24,53.69
				c-0.73,18.83,5.74,39.89,20.31,51.84c-34.67-19.53-53.46-57.69-74.45-91.51c-35.74-57.6-83.18-107.92-138.58-146.97
				c2.31-18.62,2.45-35.29,8.74-52.97C1472.8,1066.14,1539.12,1140.19,1616.07,1178.43z"/>
			<g>
				<path class="st3" d="M1684.82,735.25c-3.79-0.98-7.67-1.32-11.53-1.76c-8.72-17.84-30.55-30.34-49.73-25.51
					c-101.46,25.55-269.95,177.95-276.78,423.85c-0.42,14.94,6.14,31.34,19.13,38.74c7.74,4.42,17.55,0.64,21.99-6.9
					c0.73,0.87,1.28,1.87,2.06,2.7c2.84,3.03,7.75,5.73,11.14,3.32c-10.84-26.42-14.38-57.42-10.71-85.74
					c3.66-28.32,12.74-55.68,23.34-82.2c24.74-61.89,58.53-120.95,105.31-168.43c46.78-47.48,104.9-81.96,170.78-92.08
					C1688.74,738.43,1687.74,736.01,1684.82,735.25z"/>
				<g>
					<path class="st2" d="M1614.8,731.62c-69.56,40.49-124.65,95.21-166.87,157.91c-41.88,62.93-71.45,134.72-82.32,214.42
						c3.75-80.7,30.85-156.73,73.9-221.03C1482.63,818.67,1542.5,765.29,1614.8,731.62z"/>
				</g>
				<path class="st7" d="M1466.1,878c21.62-35.86,49.5-68.51,83.31-94.14c33.72-25.41,74.61-43.03,116.71-45.08
					c-20.48,4.48-40.28,10.92-58.95,19.73c-18.62,8.87-36.29,19.6-52.73,32.06C1521.32,815.27,1493.04,845.94,1466.1,878z"/>
				<path class="st7" d="M1443.02,855.86c8.88-17.95,21.12-34.14,34.52-49.07c13.38-15.01,28.41-28.46,44.18-40.89
					c15.89-12.28,32.61-23.51,50.3-33c17.64-9.53,36.04-17.83,55.3-23.22c-35.95,17.3-69.31,38.59-100.46,62.84
					C1495.81,796.83,1466.71,823.73,1443.02,855.86z"/>
			</g>
			<g>
				<path class="st2" d="M1715.09,1376.13c-14.26,1.61-26.88,7.29-39.57,12.02c-6.32,2.56-12.55,5.09-18.74,7.6l-9.23,3.87
					c-3.35,1.42-6.88,2.55-10.35,3.41c-13.94,3.15-28.12,4.04-42.54,0.23c-7.16-2.18-13.65-5.98-18.9-11.14
					c-5.2-5.08-9.11-12.1-8.98-19.26c3.94,13.9,17.93,20.5,29.82,22.65c12.48,1.62,25.99-0.03,38.28-2.92
					C1659.01,1384.65,1686.46,1373.36,1715.09,1376.13z"/>
			</g>
			<g>
				<path class="st2" d="M2201.09,1085.02c-1.15,12.9-7.01,25-13.81,35.88c-6.91,10.94-15.06,20.97-23.72,30.4
					c-17.41,19.07-38.27,33.91-56.49,50.35c-36.49,32.76-62.58,75.47-100.56,109.42c-18.97,16.9-41.18,30.59-65.05,39.53
					c-23.9,9.03-48.99,13.72-74,16.5c-50.53,6.15-100.94-1.05-152.47,5.41c51.1-11.17,102.98-7.57,151.62-16.05
					c24.51-3.93,48.46-9.42,70.75-18.6c22.35-9.1,42.58-22.08,60.43-38.14c35.85-32.08,63.33-74.55,103.02-106.87
					c19.68-15.94,40.75-29.21,58.71-46.39c9.04-8.57,17.65-17.7,25.18-27.75C2192.11,1108.7,2198.77,1097.61,2201.09,1085.02z"/>
			</g>
			<path class="st5" d="M1368,1007.84c-1.26,3.61-0.19,7.91,2.6,10.52c2.79,2.61,7.16,3.37,10.68,1.86
				c0.35,6.53,7.37,12.08,13.83,11.07c-17.05,40.6-20.07,88.08-7.67,130.33c-9.8,4.67-23.37,0.34-30.54-7.81
				C1343.13,1138.16,1354.98,1052.05,1368,1007.84z"/>
			<path class="st6" d="M1732.43,1361.76c43.06-6.51,86.74-8.49,129.69-15.68c42.96-7.18,85.97-20.03,121.08-45.78
				c43.56-31.95,71.6-81.09,113.28-115.45c30.26-24.93,68.56-43.16,86.61-77.97c15.37-29.65,12.56-65.04,9.37-98.29
				c-14.85,46.84-34.37,97.5-73.75,126.9c-23.09,17.24-51.58,25.47-76.5,39.95c-36.71,21.33-64.16,55.24-96.84,82.35
				C1882.84,1309.68,1809.92,1337.33,1732.43,1361.76z"/>
			<path class="st6" d="M2055.35,1153.4c-83.36,35.23-137,124.8-223.75,150.6c29.12-37.94,58.06-76.2,95.59-105.85
				S2007.65,1149.88,2055.35,1153.4z"/>
			<path class="st6" d="M2044.86,1143.47c-52.87,18.13-129.95,67.82-170.6,106.18c-40.48,38.19-93.76,62.56-149.12,68.22
				c58.49-23.29,109.05-63.46,151.38-110.06c-12.11,4.57-28.39,5-41.31,5.89c38.85-13.06,68.6-44.48,102.95-66.83
				c34.35-22.35,74.9-40.84,115.19-33.34c-18.62,4.59-37.62,11.46-54.63,20.32C2009.52,1134.91,2038.61,1134.58,2044.86,1143.47z"/>
			<path class="st6" d="M1761.56,1042.82c-29.13,10.57-48.22,22.7-68.55,42.2c-62.01-33.21-100.29-67.29-149.05-109.33
				C1666.13,957.95,1708.45,994.72,1761.56,1042.82z"/>
		</g>
	</g>
</g>
</svg>
