<svg xmlns="http://www.w3.org/2000/svg" viewBox="0 0 600 250"><defs><style>.cls-1{fill:none;stroke-width:0.05px;}.cls-1,.cls-2{stroke:#000;stroke-miterlimit:10;}.cls-2{fill:#38ad4b;}.cls-3{opacity:0.3;}.cls-4{fill:#fff;}.cls-5{fill:#f2f2f2;}.cls-6{fill:#35af4a;}.cls-7{fill:gold;}.cls-8{font-size:110px;fill:#000d23;font-family:PoetsenOne-Regular, Poetsen One;}.cls-9{font-size:122px;font-family:Baloo-Regular, Baloo;}</style></defs><title>BetBeans Logo Final 2</title><g id="Favicon"><circle class="cls-1" cx="-168.5" cy="-666" r="24"/></g><g id="Primary_Logo" data-name="Primary Logo"><g id="Primary_Logo-2" data-name="Primary Logo"><g id="Bean_with_Top_Hat" data-name="Bean with Top Hat"><g id="Bean_with_Details" data-name="Bean with Details"><path id="Green_Bean" data-name="Green Bean" class="cls-2" d="M297.27,84a30.1,30.1,0,0,0-7.56-6.44,32.31,32.31,0,0,0-8.43-3.43,31.88,31.88,0,0,0-7.38-1,33.08,33.08,0,0,0-12.64,2.24,28.68,28.68,0,0,0-10.53,7.22,54.68,54.68,0,0,0-12.14,20.33c-.54,1.66-.85,2.83-1.46,5.17-.38,1.48-.9,3.53-1.47,6.28-.16.75-.69,3.35-1.22,6.82-.24,1.58-.65,4.31-1,7.93-.11,1.26-.34,4.15-.41,7.94a102.32,102.32,0,0,0,.81,16.45c.21,1.6.46,3.16.74,4.66A65.48,65.48,0,0,0,238,169.46c.76,1.89,1.56,3.64,2.37,5.25a53.18,53.18,0,0,0,6.94,10.53,51.36,51.36,0,0,0,17,12.89,36.8,36.8,0,0,0,7.08,2.59,42.57,42.57,0,0,0,5.19.92c1,.12,3.09.28,5.74.37a43.36,43.36,0,0,0,20.9-4.57,32.16,32.16,0,0,0,12.82-12.65,31.08,31.08,0,0,0,3.49-11.44,31.69,31.69,0,0,0,.38-6.57,33.08,33.08,0,0,0-1.5-8,51,51,0,0,0-3.42-8c-1.19-2.43-2.79-5.63-4.77-9.39a38.7,38.7,0,0,1-2.36-6.07,46.63,46.63,0,0,1-1.5-8.24c-.28-2.49-.39-4.57-.44-6-.24-2.5-.37-4.57-.44-6-.21-4.08-.12-5.75-.39-9.05-.21-2.44-.5-4.43-.72-5.76a33.58,33.58,0,0,0-3.91-11.57A32.32,32.32,0,0,0,297.27,84Z"/><g id="Bean_Mouth" data-name="Bean Mouth" class="cls-3"><path class="cls-4" d="M308.39,137a5.18,5.18,0,0,1-2.06.21c-.69,0-1.37,0-2.06-.08a25,25,0,0,1-4.1-.59A12.61,12.61,0,0,1,296.1,135a3,3,0,0,1-.51-.5,2.79,2.79,0,0,1-.36-.71,2.47,2.47,0,0,1,.19-1.5,1.9,1.9,0,0,1,.89-.9,2.58,2.58,0,0,1,1.23-.31l.1.11a.76.76,0,0,1-.24.47,3.58,3.58,0,0,0-.29.39,1.51,1.51,0,0,0-.27.89,1,1,0,0,0,.24.62,2.19,2.19,0,0,0,.27.3,11.07,11.07,0,0,0,1.27.91,13,13,0,0,0,1.77.81,16.54,16.54,0,0,0,3.93,1,37.2,37.2,0,0,0,4.07.43Z"/></g><g id="Bean_Highlight" data-name="Bean Highlight" class="cls-3"><path class="cls-5" d="M266.92,78c0,1.65-.43,2.32-1,2.72l-1.86,1c-1.23.7-2.43,1.46-3.59,2.27a52.33,52.33,0,0,0-6.64,5.39A57.72,57.72,0,0,0,248,95.81c-.9,1.15-1.79,2.33-2.62,3.57-.41.62-.81,1.24-1.2,1.88s-.81,1.27-1.2,1.92l-.64-.25c.19-.74.39-1.48.62-2.21s.51-1.44.8-2.15a44.09,44.09,0,0,1,1.9-4.21q1.11-2,2.4-4c.9-1.27,1.84-2.51,2.85-3.69a43.85,43.85,0,0,1,6.81-6.39c1.25-.93,2.55-1.8,3.88-2.61.67-.39,1.34-.8,2-1.15s1.62-.3,2.94.7Z"/></g></g><g id="Hat"><g id="Top_Hat" data-name="Top Hat"><path d="M319.23,66.37a3,3,0,0,0-2.48-2,29.55,29.55,0,0,1-21.83-14.85A3,3,0,0,0,292.18,48a3,3,0,0,0-2.68,1.66c-.16.3-7.94,14.63-12.5,22.51a35.13,35.13,0,0,0-6.24-2.42c-2-.49-3.21-.35-3.74.43s-.26,1.7.61,3.08a26.5,26.5,0,0,0,3.59,4.2,101.4,101.4,0,0,0,13.59,10.84,100.48,100.48,0,0,0,15.05,8.65,26.07,26.07,0,0,0,5.22,1.79c1.6.3,2.6.11,3.06-.58s.2-2-1-3.66a35.05,35.05,0,0,0-4.56-4.91c5.57-7.2,15.89-19.79,16.11-20.07A3.08,3.08,0,0,0,319.23,66.37ZM277.54,73.2A120.16,120.16,0,0,0,289,82a121.24,121.24,0,0,0,12.38,7.47c-.7.91-1.32,1.73-1.82,2.4-.15,0-1,0-4.2-1.57a84,84,0,0,1-8.48-5.14,83.78,83.78,0,0,1-7.9-6c-2.65-2.34-3-3.19-3-3.34C276.43,75.08,277,74.2,277.54,73.2Z"/></g><path id="Clover" class="cls-6" d="M303.46,70c3.08-2.11-1.26-6.37-3.79-2.62a19.24,19.24,0,0,1-3.58,3.89l0,0c.16-.34,1.08-2.27,2.4-4.72,2.16-4-2.58-6.16-3.74-2.69-2.09-3.09-6.33,1.28-2.6,3.82a19.35,19.35,0,0,1,3.87,3.6l0,0c-.35-.16-2.26-1.09-4.69-2.42-4-2.17-6.13,2.6-2.68,3.77-3.07,2.1,1.27,6.37,3.79,2.62A19.24,19.24,0,0,1,296,71.37v0c-.19.42-1.1,2.31-2.39,4.69-2.06,3.84,2.17,6,3.56,3.12,0,.58,0,1.16-.05,1.73-.08,1.63-.27,3.24-.51,4.85-.17,1-.36,2.07-.58,3.1a1.67,1.67,0,0,1,.6.17c.2-1.06.37-2.13.51-3.19.2-1.63.34-3.27.39-4.91q0-1,0-2c2.14,2.63,6.05-1.57,2.43-4a19.36,19.36,0,0,1-3.77-3.47.58.58,0,0,0-.05-.14c.43.2,2.3,1.12,4.66,2.4C304.78,76,306.91,71.17,303.46,70Z"/><path id="Gold_Band" data-name="Gold Band" class="cls-7" d="M277.07,72.25A129.84,129.84,0,0,0,289,82a133.63,133.63,0,0,0,13.36,7.72c-.34.48-.72,1-1.13,1.48s-.76.91-1.13,1.31c-1.32-.57-2.42-1-3.26-1.43-1.22-.55-1.84-.83-2.45-1.14l-2-1-.73-.38a58.48,58.48,0,0,1-5.15-3.1A56.34,56.34,0,0,1,282,82a44.35,44.35,0,0,1-3.88-3.6l-1-1.1c-.76-.83-1.38-1.52-1.8-2,.23-.51.51-1.07.85-1.66A15.26,15.26,0,0,1,277.07,72.25Z"/></g></g><text id="Primary_Logo_Text" data-name="Primary Logo Text" class="cls-8" transform="translate(35.5 185.16)"><tspan xml:space="preserve">Bet     eans</tspan><tspan class="cls-9" x="527.44" y="0"> </tspan></text></g></g></svg>